<svg width="52" height="52" viewBox="0 0 52 52" fill="none" xmlns="http://www.w3.org/2000/svg">
<g clip-path="url(#clip0_213_4493)">
<path d="M24.9166 29.2499H5.41658C3.23692 29.2499 1.08325 28.1796 1.08325 25.9999L3.24992 4.33327C3.18459 3.89137 3.22359 3.44032 3.36381 3.0162C3.50404 2.59208 3.74159 2.20666 4.05745 1.8908C4.37331 1.57494 4.75873 1.33739 5.18285 1.19716C5.60697 1.05694 6.05802 1.01794 6.49992 1.08327H38.9999C39.4418 1.01794 39.8929 1.05694 40.317 1.19716C40.7411 1.33739 41.1265 1.57494 41.4424 1.8908C41.7582 2.20666 41.9958 2.59208 42.136 3.0162C42.2762 3.44032 42.3152 3.89137 42.2499 4.33327L44.4166 25.9999C44.4166 28.1796 42.2629 29.2499 40.0832 29.2499" stroke="#212121" stroke-width="1.5" stroke-linecap="round" stroke-linejoin="round"/>
<path d="M15.1666 46.5833H2.16659C1.87927 46.5833 1.60372 46.4692 1.40055 46.266C1.19739 46.0629 1.08325 45.7873 1.08325 45.5V36.8333C1.08325 36.546 1.19739 36.2705 1.40055 36.0673C1.60372 35.8641 1.87927 35.75 2.16659 35.75H24.9166" stroke="#212121" stroke-width="1.5" stroke-linecap="round" stroke-linejoin="round"/>
<path d="M6.50854 42.2478H15.1752" stroke="#212121" stroke-width="1.5" stroke-linecap="round" stroke-linejoin="round"/>
<path d="M22.7585 29.2478V35.7478" stroke="#212121" stroke-width="1.5" stroke-linecap="round" stroke-linejoin="round"/>
<path d="M24.9166 50.9167L19.9332 45.409C19.4409 44.7423 19.2219 43.9127 19.3209 43.0899C19.42 42.267 19.8297 41.5131 20.4662 40.9823C21.1027 40.4515 21.9179 40.1839 22.7452 40.2343C23.5724 40.2847 24.3492 40.6492 24.9166 41.2533L29.2499 46.2085V29.25C29.2499 28.388 29.5923 27.5614 30.2018 26.9519C30.8113 26.3424 31.638 26 32.4999 26C33.3619 26 34.1885 26.3424 34.798 26.9519C35.4075 27.5614 35.7499 28.388 35.7499 29.25V39H42.2499C44.5485 39 46.7529 39.9131 48.3782 41.5384C50.0035 43.1637 50.9166 45.3681 50.9166 47.6667V50.9167" stroke="#212121" stroke-width="1.5" stroke-linecap="round" stroke-linejoin="round"/>
<path d="M11.9251 7.58105H7.5918V11.9144H11.9251V7.58105Z" stroke="#212121" stroke-width="1.5" stroke-linecap="round" stroke-linejoin="round"/>
<path d="M20.5919 7.58105H16.2585V11.9144H20.5919V7.58105Z" stroke="#212121" stroke-width="1.5" stroke-linecap="round" stroke-linejoin="round"/>
<path d="M11.9251 16.2478H7.5918V20.5811H11.9251V16.2478Z" stroke="#212121" stroke-width="1.5" stroke-linecap="round" stroke-linejoin="round"/>
<path d="M20.5919 16.2478H16.2585V20.5811H20.5919V16.2478Z" stroke="#212121" stroke-width="1.5" stroke-linecap="round" stroke-linejoin="round"/>
<path d="M33.5918 18.4146V20.5812" stroke="#212121" stroke-width="1.5" stroke-linecap="round" stroke-linejoin="round"/>
<path d="M33.5918 7.58105V9.74772" stroke="#212121" stroke-width="1.5" stroke-linecap="round" stroke-linejoin="round"/>
<path d="M29.25 18.4167H35.75C36.3246 18.4167 36.8757 18.1884 37.2821 17.7821C37.6884 17.3757 37.9167 16.8246 37.9167 16.25C37.9167 15.6754 37.6884 15.1243 37.2821 14.7179C36.8757 14.3116 36.3246 14.0833 35.75 14.0833H31.4167C30.842 14.0833 30.2909 13.8551 29.8846 13.4487C29.4783 13.0424 29.25 12.4913 29.25 11.9167C29.25 11.342 29.4783 10.7909 29.8846 10.3846C30.2909 9.97827 30.842 9.75 31.4167 9.75H37.9167" stroke="#212121" stroke-width="1.5" stroke-linecap="round" stroke-linejoin="round"/>
</g>
<defs>
<clipPath id="clip0_213_4493">
<rect width="52" height="52" fill="white"/>
</clipPath>
</defs>
</svg>
