<svg width="52" height="52" viewBox="0 0 52 52" fill="none" xmlns="http://www.w3.org/2000/svg">
<path d="M32.5565 43.2403C34.0482 42.146 35.2684 40.7234 36.1227 39.0824C36.977 37.4414 37.4426 35.6259 37.4835 33.7763C37.4835 26.6003 30.5025 20.7763 21.8835 20.7763C20.1819 20.7762 18.4886 21.0132 16.8525 21.4805C15.8774 20.1099 14.5114 19.0655 12.933 18.484C12.7705 18.4279 12.5969 18.4114 12.4267 18.4357C12.2565 18.46 12.0945 18.5244 11.9542 18.6237C11.8138 18.723 11.6991 18.8543 11.6195 19.0067C11.5399 19.1591 11.4978 19.3282 11.4965 19.5002V24.1368C9.73961 25.4418 8.38393 27.2133 7.5835 29.2502H5.41683C5.12951 29.2502 4.85396 29.3643 4.6508 29.5675C4.44763 29.7706 4.3335 30.0462 4.3335 30.3335V36.8335C4.3335 37.1208 4.44763 37.3964 4.6508 37.5995C4.85396 37.8027 5.12951 37.9168 5.41683 37.9168H7.5835C8.45215 40.2368 9.96997 42.2578 11.9558 43.7387L10.5995 47.422C10.4707 47.7445 10.4078 48.0895 10.4146 48.4368C10.4213 48.784 10.4976 49.1263 10.6388 49.4436C10.78 49.7608 10.9834 50.0466 11.2368 50.284C11.4903 50.5214 11.7888 50.7055 12.1146 50.8257C12.4404 50.9458 12.787 50.9995 13.1339 50.9835C13.4808 50.9675 13.821 50.8821 14.1344 50.7325C14.4478 50.5828 14.728 50.372 14.9585 50.1122C15.1891 49.8525 15.3653 49.5492 15.4767 49.2203L16.6618 46.005C20.3497 47.11 24.2921 47.0243 27.9285 45.7602L29.2047 49.2268C29.3161 49.5557 29.4922 49.859 29.7228 50.1187C29.9533 50.3785 30.2335 50.5893 30.5469 50.739C30.8603 50.8886 31.2005 50.974 31.5474 50.99C31.8943 51.006 32.2409 50.9523 32.5667 50.8322C32.8926 50.712 33.191 50.5279 33.4445 50.2905C33.698 50.0531 33.9013 49.7673 34.0425 49.4501C34.1838 49.1328 34.26 48.7905 34.2667 48.4433C34.2735 48.096 34.2106 47.751 34.0818 47.4285L32.5565 43.2403Z" stroke="#212121" stroke-width="1.5" stroke-linecap="round" stroke-linejoin="round"/>
<path d="M37.4834 33.7762C40.9501 33.7762 42.6834 32.0429 42.6834 29.4429" stroke="#212121" stroke-width="1.5" stroke-linecap="round" stroke-linejoin="round"/>
<path d="M14.634 30.3335C14.7411 30.3335 14.8458 30.3653 14.9349 30.4248C15.024 30.4843 15.0934 30.5689 15.1344 30.6679C15.1754 30.7669 15.1861 30.8758 15.1652 30.9808C15.1443 31.0859 15.0927 31.1824 15.017 31.2582C14.9412 31.3339 14.8447 31.3855 14.7396 31.4064C14.6346 31.4273 14.5256 31.4166 14.4267 31.3756C14.3277 31.3346 14.2431 31.2652 14.1836 31.1761C14.1241 31.087 14.0923 30.9823 14.0923 30.8752C14.0923 30.7315 14.1494 30.5937 14.2509 30.4921C14.3525 30.3906 14.4903 30.3335 14.634 30.3335Z" stroke="#212121" stroke-width="1.5" stroke-linecap="round" stroke-linejoin="round"/>
<path d="M23.2852 14.675C23.0521 12.5897 23.3592 10.4796 24.1771 8.54736C24.995 6.61512 26.2961 4.92572 27.9554 3.64154C29.6148 2.35736 31.5765 1.52157 33.6521 1.21449C35.7278 0.907407 37.8475 1.13936 39.8076 1.88806C41.7676 2.63677 43.5022 3.87704 44.8445 5.48969C46.1869 7.10233 47.0918 9.03314 47.4725 11.0965C47.8531 13.1599 47.6967 15.2865 47.0181 17.272C46.3395 19.2575 45.1616 21.035 43.5977 22.4338" stroke="#212121" stroke-width="1.5" stroke-linecap="round" stroke-linejoin="round"/>
<path d="M35.7588 6.50016V4.3335" stroke="#212121" stroke-width="1.5" stroke-linecap="round" stroke-linejoin="round"/>
<path d="M39 6.5H34.6039C33.9288 6.50047 33.2749 6.73582 32.7544 7.16567C32.2339 7.59553 31.8792 8.1931 31.7511 8.8559C31.623 9.5187 31.7295 10.2054 32.0523 10.7983C32.3752 11.3911 32.8943 11.8532 33.5205 12.1052L37.9925 13.8948C38.6185 14.1467 39.1373 14.6084 39.4602 15.2008C39.7832 15.7932 39.89 16.4794 39.7624 17.142C39.6349 17.8045 39.2809 18.4021 38.7612 18.8323C38.2414 19.2625 37.5882 19.4985 36.9136 19.5H32.5" stroke="#212121" stroke-width="1.5" stroke-linecap="round" stroke-linejoin="round"/>
<path d="M35.7588 21.6667V19.5" stroke="#212121" stroke-width="1.5" stroke-linecap="round" stroke-linejoin="round"/>
</svg>
