<svg width="52" height="52" viewBox="0 0 52 52" fill="none" xmlns="http://www.w3.org/2000/svg">
<path d="M46.6593 29.8003C46.6593 35.1921 44.5174 40.363 40.7049 44.1756C36.8923 47.9881 31.7214 50.13 26.3297 50.13C20.9379 50.13 15.767 47.9881 11.9544 44.1756C8.14187 40.363 6 35.1921 6 29.8003V6.08241L26.3297 1L46.6593 6.08241V29.8003Z" stroke="#212121" stroke-width="1.5" stroke-miterlimit="10" stroke-linecap="square"/>
<path d="M26.125 28.875C26.5737 28.875 26.9375 28.5112 26.9375 28.0625C26.9375 27.6138 26.5737 27.25 26.125 27.25C25.6763 27.25 25.3125 27.6138 25.3125 28.0625C25.3125 28.5112 25.6763 28.875 26.125 28.875Z" stroke="#212121" stroke-width="1.5" stroke-miterlimit="10" stroke-linecap="square"/>
<path d="M34.25 22.375H18V33.75H34.25V22.375Z" stroke="#212121" stroke-width="1.5" stroke-miterlimit="10" stroke-linecap="square"/>
<path d="M21.25 21.375V18.875C21.25 17.5821 21.7636 16.3421 22.6779 15.4279C23.5921 14.5136 24.8321 14 26.125 14C27.4179 14 28.6579 14.5136 29.5721 15.4279C30.4864 16.3421 31 17.5821 31 18.875V21.375" stroke="#212121" stroke-width="1.5" stroke-miterlimit="10" stroke-linecap="square"/>
</svg>
