<svg width="52" height="52" viewBox="0 0 52 52" fill="none" xmlns="http://www.w3.org/2000/svg">
<g clip-path="url(#clip0_213_4507)">
<path d="M24.9272 50.8992C11.9272 33.5658 11.9272 15.1947 24.9272 1.11133" stroke="#212121" stroke-width="1.5" stroke-linecap="round" stroke-linejoin="round"/>
<path d="M4.33301 37.9209H27.0808" stroke="#212121" stroke-width="1.5" stroke-linecap="round" stroke-linejoin="round"/>
<path d="M3.86963 14.0876H27.0811" stroke="#212121" stroke-width="1.5" stroke-linecap="round" stroke-linejoin="round"/>
<path d="M1.22168 24.9209H27.0808" stroke="#212121" stroke-width="1.5" stroke-linecap="round" stroke-linejoin="round"/>
<path d="M27.0832 1.13962C26.7257 1.12445 26.3726 1.08328 26.0107 1.08328C22.7648 1.01499 19.5378 1.59481 16.5187 2.78881C13.4996 3.98281 10.7489 5.767 8.42768 8.03697C6.10646 10.3069 4.26132 13.0171 3.00023 16.0088C1.73913 19.0006 1.08743 22.2138 1.08325 25.4604C1.03263 32.1222 3.61496 38.5344 8.26833 43.3018C12.9217 48.0692 19.2695 50.806 25.9306 50.9166C26.3206 50.9166 26.6976 50.8754 27.0832 50.8603V1.13962Z" stroke="#212121" stroke-width="1.5" stroke-linecap="round" stroke-linejoin="round"/>
<path d="M40.083 23.8376V30.3376" stroke="#212121" stroke-width="1.5" stroke-linecap="round" stroke-linejoin="round"/>
<path d="M31.4165 37.9167H34.6665L35.7498 50.9167H44.4165L45.4998 37.9167H50.9165V30.3333C50.9165 28.0596 50.2011 25.8435 48.8716 23.999C47.5422 22.1544 45.666 20.7749 43.509 20.0559C41.3519 19.3369 39.0233 19.3148 36.853 19.9928C34.6827 20.6707 32.7807 22.0144 31.4165 23.8333" stroke="#212121" stroke-width="1.5" stroke-linecap="round" stroke-linejoin="round"/>
<path d="M33.5703 4.84473C34.7445 6.05498 36.1499 7.01695 37.7031 7.6735C39.2563 8.33006 40.9256 8.66782 42.6118 8.66673C44.3143 8.66844 45.9994 8.3242 47.5648 7.65489" stroke="#212121" stroke-width="1.5" stroke-linecap="round" stroke-linejoin="round"/>
<path d="M40.0833 16.2543C44.2715 16.2543 47.6667 12.8591 47.6667 8.67098C47.6667 4.48282 44.2715 1.08765 40.0833 1.08765C35.8952 1.08765 32.5 4.48282 32.5 8.67098C32.5 12.8591 35.8952 16.2543 40.0833 16.2543Z" stroke="#212121" stroke-width="1.5" stroke-linecap="round" stroke-linejoin="round"/>
</g>
<defs>
<clipPath id="clip0_213_4507">
<rect width="52" height="52" fill="white"/>
</clipPath>
</defs>
</svg>
