<svg width="52" height="52" viewBox="0 0 52 52" fill="none" xmlns="http://www.w3.org/2000/svg">
<path d="M22.217 49.4801L17.2185 43.9833C16.9456 43.6551 16.74 43.2763 16.6135 42.8687C16.4871 42.461 16.4421 42.0325 16.4812 41.6075C16.5204 41.1824 16.6428 40.7693 16.8416 40.3916C17.0404 40.0139 17.3117 39.6791 17.6399 39.4062C18.3027 38.8551 19.1573 38.5899 20.0157 38.669C20.8741 38.748 21.6659 39.1648 22.217 39.8276L26.5503 44.7806V27.8113C26.5503 26.9493 26.8927 26.1227 27.5022 25.5132C28.1117 24.9037 28.9383 24.5613 29.8003 24.5613C30.6622 24.5613 31.4889 24.9037 32.0984 25.5132C32.7079 26.1227 33.0503 26.9493 33.0503 27.8113V37.5613H39.5503C41.8488 37.5613 44.0532 38.4744 45.6785 40.0997C47.3039 41.725 48.217 43.9294 48.217 46.2279V49.4779" stroke="#212121" stroke-width="1.5" stroke-linecap="round" stroke-linejoin="round"/>
<path d="M18.967 32.8531C15.9673 32.8531 13.035 31.9636 10.5408 30.2971C8.04667 28.6305 6.10272 26.2618 4.95479 23.4905C3.80686 20.7191 3.50651 17.6696 4.09172 14.7276C4.67693 11.7855 6.12142 9.08309 8.24251 6.962C10.3636 4.8409 13.0661 3.39641 16.0081 2.81121C18.9501 2.226 21.9997 2.52635 24.771 3.67428C27.5423 4.82221 29.9111 6.76616 31.5776 9.2603C33.2441 11.7544 34.1336 14.6868 34.1336 17.6864" stroke="#212121" stroke-width="1.5" stroke-linecap="round" stroke-linejoin="round"/>
<path d="M19 25C17.6155 25 16.2622 24.5895 15.111 23.8203C13.9599 23.0511 13.0627 21.9579 12.5328 20.6788C12.003 19.3997 11.8644 17.9922 12.1345 16.6344C12.4046 15.2765 13.0713 14.0292 14.0503 13.0503C15.0292 12.0713 16.2765 11.4046 17.6344 11.1345C18.9922 10.8644 20.3997 11.003 21.6788 11.5328C22.9579 12.0627 24.0511 12.9599 24.8203 14.111C25.5895 15.2622 26 16.6155 26 18" stroke="#212121" stroke-width="1.5" stroke-linecap="round" stroke-linejoin="round"/>
</svg>
